<svg id="Layer_1" data-name="Layer 1" xmlns="http://www.w3.org/2000/svg" viewBox="0 0 871.89 206.1"><defs><style>.cls-1{fill:aqua;}.cls-2{fill:#1a1a1a;}</style></defs><rect class="cls-1" y="2.69" width="192" height="203"/><path class="cls-2" d="M263,314.11c0,11.4,3.6,16.2,11.7,16.2,8.4,0,11.7-4.8,11.7-16.2V153.31h27.9v149.4c0,23.7-.9,28.8-6.3,37.5-6.6,9.9-19.2,16.2-33.3,16.2s-26.7-6.3-33.3-16.2c-5.4-8.7-6.3-13.8-6.3-37.5V153.31H263Z" transform="translate(-235 -150.31)"/><path class="cls-2" d="M427.11,353.41h-27.9l-33-105v105h-27.9V153.31h24l36.9,117.9V153.31h27.9Z" transform="translate(-235 -150.31)"/><path class="cls-2" d="M530,282.31c.3,10.8.6,15.6.6,21,0,35.7-13.2,53.1-40.5,53.1-26.1,0-39.3-16.2-39.3-48V198.31c0-31.8,13.2-48,39.3-48q40.5,0,40.5,52.2c0,4.8,0,8.1-.6,15.9h-27.9a118.32,118.32,0,0,0,.6-13.8c0-22.2-2.7-28.2-12.6-28.2-9,0-11.4,4.5-11.4,21.9v110.1c0,17.4,2.4,21.9,11.4,21.9,9.9,0,12.6-6,12.6-27.3,0-6-.3-11.4-.6-20.7Z" transform="translate(-235 -150.31)"/><path class="cls-2" d="M632,302.41c0,24-.9,28.8-6.3,37.5-6.6,10.2-19.2,16.5-33.3,16.5s-26.7-6.3-33.31-16.5c-5.39-8.7-6.3-13.8-6.3-37.5V204c0-23.7.91-28.8,6.3-37.5,6.61-9.9,19.2-16.2,33.31-16.2s26.7,6.3,33.3,16.2c5.4,8.7,6.3,13.8,6.3,37.5Zm-27.9-109.8c0-11.4-3.3-16.2-11.7-16.2-8.11,0-11.7,4.8-11.7,16.2v121.5c0,11.4,3.29,16.2,11.7,16.2,8.09,0,11.7-4.8,11.7-16.2Z" transform="translate(-235 -150.31)"/><path class="cls-2" d="M728,153.31h33.6v200.1h-24V212.11l-23.4,141.3h-12l-23.4-141.3v141.3H655.4V153.31h33l19.8,99.6Z" transform="translate(-235 -150.31)"/><path class="cls-2" d="M858.2,153.31h33.6v200.1h-24V212.11l-23.4,141.3h-12L809,212.11v141.3H785.6V153.31h33l19.8,99.6Z" transform="translate(-235 -150.31)"/><path class="cls-2" d="M994.7,302.41c0,24-.9,28.8-6.3,37.5-6.6,10.2-19.2,16.5-33.3,16.5s-26.7-6.3-33.31-16.5c-5.39-8.7-6.29-13.8-6.29-37.5V204c0-23.7.9-28.8,6.29-37.5,6.61-9.9,19.21-16.2,33.31-16.2s26.7,6.3,33.3,16.2c5.4,8.7,6.3,13.8,6.3,37.5Zm-27.9-109.8c0-11.4-3.3-16.2-11.7-16.2-8.1,0-11.7,4.8-11.7,16.2v121.5c0,11.4,3.3,16.2,11.7,16.2,8.1,0,11.7-4.8,11.7-16.2Z" transform="translate(-235 -150.31)"/><path class="cls-2" d="M1106.89,353.41H1079l-33-105v105h-27.9V153.31h24l36.9,117.9V153.31h27.9Z" transform="translate(-235 -150.31)"/></svg>