<svg id="Layer_1" data-name="Layer 1" xmlns="http://www.w3.org/2000/svg" viewBox="0 0 1921.75 1081.87"><defs><style>.cls-1{fill:none;stroke:#e6e6e6;stroke-miterlimit:10;}</style></defs><path id="Line" class="cls-1" d="M-.06,0l1921,1080" transform="translate(0.44 0.46)"/><path id="Line-2" class="cls-1" d="M-.06,1081,1918.11,3.07" transform="translate(0.44 0.46)"/><path id="Line-3" class="cls-1" d="M960.94,1l959,540" transform="translate(0.44 0.46)"/><path id="Line-4" class="cls-1" d="M960.44,1079.89,1918.7,3.07" transform="translate(0.44 0.46)"/><path id="Line-5" class="cls-1" d="M-.06,0l961,1080" transform="translate(0.44 0.46)"/><path id="Line-6" class="cls-1" d="M-.06,1081,960.94,1" transform="translate(0.44 0.46)"/><path id="Line-7" class="cls-1" d="M.94,541l960,539" transform="translate(0.44 0.46)"/><path id="Line-8" class="cls-1" d="M.94,541l960-540" transform="translate(0.44 0.46)"/><path id="Line-9" class="cls-1" d="M960.94,2l960,1078" transform="translate(0.44 0.46)"/><path id="Line-10" class="cls-1" d="M960.94,1080l959-539" transform="translate(0.44 0.46)"/><path id="Line-11" class="cls-1" d="M1600.78.48v1080" transform="translate(0.44 0.46)"/><path id="Line-12" class="cls-1" d="M1440.23.48v1080" transform="translate(0.44 0.46)"/><path id="Line-13" class="cls-1" d="M1280.78.48v1080" transform="translate(0.44 0.46)"/><path id="Line-14" class="cls-1" d="M960.94.48v1080" transform="translate(0.44 0.46)"/><path id="Line-15" class="cls-1" d="M640.78.48v1080" transform="translate(0.44 0.46)"/><path id="Line-16" class="cls-1" d="M480.81.48v1080" transform="translate(0.44 0.46)"/><path id="Line-17" class="cls-1" d="M320.81.48v1080" transform="translate(0.44 0.46)"/><path id="Line-18" class="cls-1" d="M.44,810.66h1920" transform="translate(0.44 0.46)"/><path id="Line-19" class="cls-1" d="M.44,720.66h1920" transform="translate(0.44 0.46)"/><path id="Line-20" class="cls-1" d="M.44,541h1920" transform="translate(0.44 0.46)"/><path id="Line-21" class="cls-1" d="M.44,360.66h1920" transform="translate(0.44 0.46)"/><path id="Line-22" class="cls-1" d="M.44,270.48h1920" transform="translate(0.44 0.46)"/></svg>